<?xml version="1.0" standalone="no"?>
<!DOCTYPE svg PUBLIC "-//W3C//DTD SVG 20010904//EN"
 "http://www.w3.org/TR/2001/REC-SVG-20010904/DTD/svg10.dtd">
<svg version="1.0" xmlns="http://www.w3.org/2000/svg"
 width="482.000000pt" height="181.000000pt" viewBox="0 0 482.000000 181.000000"
 preserveAspectRatio="xMidYMid meet">

<g transform="translate(0.000000,181.000000) scale(0.100000,-0.100000)"
fill="#000000" stroke="none">
<path d="M940 1547 l0 -126 48 -6 c139 -19 245 -70 330 -159 204 -212 202
-535 -4 -742 -160 -160 -403 -199 -612 -98 -65 32 -159 118 -203 185 -17 27
-37 48 -43 46 -54 -21 -216 -101 -216 -107 0 -23 107 -165 168 -222 330 -310
849 -280 1136 68 212 257 241 614 74 899 -53 90 -183 220 -273 273 -91 53
-230 99 -327 108 l-78 7 0 -126z"/>
<path d="M1962 1078 c-7 -7 -12 -21 -12 -33 0 -12 5 -26 12 -33 7 -7 21 -12
33 -12 12 0 26 5 33 12 7 7 12 21 12 33 0 12 -5 26 -12 33 -7 7 -21 12 -33 12
-12 0 -26 -5 -33 -12z"/>
<path d="M2147 1084 c-11 -12 -8 -69 5 -82 17 -17 43 -15 59 6 13 15 12 16 -3
4 -27 -22 -58 -6 -58 29 0 35 23 48 52 30 16 -10 19 -10 16 1 -5 14 -59 23
-71 12z"/>
<path d="M2540 1077 c0 -8 -10 -13 -21 -13 -12 1 -26 -7 -33 -16 -15 -25 4
-53 38 -54 25 -1 26 1 26 47 0 27 -2 49 -5 49 -3 0 -5 -6 -5 -13z m-6 -32 c8
-21 -3 -45 -20 -45 -8 0 -17 7 -20 15 -8 21 2 45 20 45 7 0 16 -7 20 -15z"/>
<path d="M2720 1045 c0 -25 5 -45 10 -45 6 0 10 20 10 45 0 25 -4 45 -10 45
-5 0 -10 -20 -10 -45z"/>
<path d="M3228 1078 c-8 -24 7 -81 22 -85 12 -4 12 -2 2 5 -7 5 -12 24 -10 45
2 37 -6 58 -14 35z"/>
<path d="M3567 1076 c-3 -7 -1 -18 5 -24 6 -6 6 -12 -1 -16 -18 -12 -12 -34
10 -41 31 -10 47 13 42 58 -3 20 -9 37 -13 37 -5 0 -6 -9 -3 -20 4 -13 0 -20
-9 -20 -22 0 -29 12 -17 27 7 8 8 13 1 13 -5 0 -12 -6 -15 -14z m51 -53 c5
-17 -26 -29 -40 -15 -6 6 -7 15 -3 22 9 14 37 9 43 -7z"/>
<path d="M3654 1076 c-16 -41 20 -106 45 -81 19 20 22 60 6 80 -15 19 -15 19
-4 -6 13 -30 -3 -73 -24 -66 -17 5 -21 68 -5 78 10 7 10 9 0 9 -7 0 -15 -6
-18 -14z"/>
<path d="M3741 1078 c-1 -22 18 -33 32 -19 8 8 8 14 -2 24 -10 10 -11 9 -6 -5
4 -10 3 -18 -3 -18 -6 0 -13 8 -15 18 -4 15 -5 15 -6 0z"/>
<path d="M3790 1060 c-12 -16 -19 -30 -16 -30 2 0 14 14 26 30 12 17 19 30 16
30 -2 0 -14 -13 -26 -30z"/>
<path d="M2241 1025 c2 -33 3 -35 6 -10 2 17 11 35 20 42 13 10 13 12 -6 10
-18 -1 -21 -7 -20 -42z"/>
<path d="M2303 1063 c-19 -7 -16 -60 3 -67 25 -10 33 -7 44 14 19 36 -10 69
-47 53z m40 -22 c6 -26 -7 -45 -27 -38 -16 6 -22 38 -9 50 12 13 31 7 36 -12z"/>
<path d="M2371 1064 c-1 -6 4 -26 11 -45 l12 -34 12 30 12 30 12 -30 12 -30
14 39 c8 22 12 41 9 44 -4 5 -6 0 -18 -38 -3 -10 -9 -5 -17 15 l-12 30 -12
-30 -13 -30 -10 30 c-7 17 -12 25 -12 19z"/>
<path d="M2574 1058 c-4 -7 2 -18 14 -26 28 -18 29 -36 2 -29 -11 3 -18 1 -14
-4 8 -14 30 -11 44 6 10 12 7 17 -14 26 -31 14 -35 34 -6 26 11 -3 18 -1 14 4
-8 13 -31 11 -40 -3z"/>
<path d="M2656 1061 c-3 -5 3 -7 14 -4 11 3 20 0 20 -6 0 -6 -6 -11 -12 -11
-10 0 -9 -3 1 -9 16 -11 6 -31 -16 -31 -10 0 -13 6 -8 18 5 13 3 14 -6 5 -16
-16 -2 -33 27 -31 22 2 25 6 22 38 -3 34 -28 54 -42 31z"/>
<path d="M2760 1050 c-8 -14 -8 -26 0 -40 11 -21 44 -27 55 -10 4 7 -2 9 -19
4 -20 -5 -26 -2 -26 10 0 10 9 16 25 16 27 0 32 9 13 28 -18 18 -36 15 -48 -8z
m45 0 c3 -5 -3 -10 -14 -10 -12 0 -21 5 -21 10 0 6 6 10 14 10 8 0 18 -4 21
-10z"/>
<path d="M2883 1030 c0 -25 2 -35 4 -22 2 12 2 32 0 45 -2 12 -4 2 -4 -23z"/>
<path d="M2911 1026 l2 -41 6 35 c8 48 38 54 44 8 l4 -33 -1 35 c-1 31 -4 35
-28 36 -26 1 -28 -1 -27 -40z"/>
<path d="M2997 1052 c11 -47 16 -62 22 -62 9 0 34 70 27 77 -3 3 -8 -6 -12
-21 -8 -32 -17 -33 -30 -3 -6 12 -9 16 -7 9z"/>
<path d="M3071 1048 c-5 -13 -5 -31 1 -40 10 -20 43 -24 53 -8 4 7 -2 9 -19 4
-20 -5 -26 -2 -26 10 0 10 9 16 25 16 27 0 32 9 13 28 -19 19 -38 14 -47 -10z
m44 2 c3 -5 -3 -10 -14 -10 -12 0 -21 5 -21 10 0 6 6 10 14 10 8 0 18 -4 21
-10z"/>
<path d="M3157 1063 c-13 -13 -7 -31 13 -36 11 -3 20 -11 20 -17 0 -8 -8 -10
-21 -7 -16 4 -19 3 -11 -5 14 -14 42 -3 42 16 0 8 -9 18 -20 21 -26 8 -26 29
0 22 11 -3 18 -1 14 4 -6 11 -28 12 -37 2z"/>
<path d="M3280 1055 c-26 -31 13 -82 44 -56 19 16 21 42 4 59 -16 16 -33 15
-48 -3z m45 -25 c0 -29 -32 -41 -41 -16 -9 24 4 48 23 44 12 -2 18 -12 18 -28z"/>
<path d="M3361 1025 c2 -33 3 -35 6 -10 2 17 11 35 20 42 13 10 13 12 -6 10
-18 -1 -21 -7 -20 -42z"/>
<path d="M3417 1063 c-13 -13 -7 -31 13 -36 11 -3 20 -11 20 -17 0 -8 -8 -10
-21 -7 -16 4 -19 3 -11 -5 14 -14 42 -3 42 16 0 8 -9 18 -20 21 -26 8 -26 29
0 22 11 -3 18 -1 14 4 -6 11 -28 12 -37 2z"/>
<path d="M3793 1024 c-8 -21 13 -42 28 -27 13 13 5 43 -11 43 -6 0 -13 -7 -17
-16z m27 -9 c0 -8 -4 -15 -10 -15 -5 0 -10 7 -10 15 0 8 5 15 10 15 6 0 10 -7
10 -15z"/>
<path d="M2141 728 c1 -29 4 -43 6 -31 2 13 13 24 26 26 l22 4 -22 2 c-35 2
-31 39 5 44 25 4 25 4 -5 6 l-33 1 1 -52z"/>
<path d="M2969 763 c-13 -16 -12 -17 3 -5 18 14 38 9 38 -11 0 -6 -12 -24 -27
-39 l-27 -28 35 1 c25 1 28 3 11 6 l-24 5 22 23 c24 26 24 58 -1 63 -9 1 -22
-5 -30 -15z"/>
<path d="M3055 763 c-12 -11 -15 -25 -11 -47 8 -36 24 -48 48 -35 30 16 19 99
-13 99 -4 0 -15 -7 -24 -17z m43 -35 c2 -25 -2 -37 -13 -42 -23 -8 -41 35 -25
63 16 31 34 21 38 -21z"/>
<path d="M3150 773 c5 -2 10 -11 10 -18 0 -7 -5 -16 -10 -18 -6 -3 -5 -4 2 -3
7 2 13 11 13 21 0 10 -6 19 -13 21 -7 1 -8 0 -2 -3z"/>
<path d="M2520 761 c0 -5 -12 -11 -27 -13 -21 -2 -29 -9 -31 -27 -5 -29 20
-51 48 -44 16 4 20 14 20 49 0 24 -2 44 -5 44 -3 0 -5 -4 -5 -9z m-4 -36 c8
-20 -13 -45 -32 -38 -14 5 -19 34 -7 46 11 12 33 7 39 -8z"/>
<path d="M2639 759 c-2 -29 3 -74 9 -81 4 -4 6 13 5 38 -1 43 -12 74 -14 43z"/>
<path d="M3175 728 c-16 -24 -22 -38 -14 -31 15 12 53 73 46 73 -2 0 -17 -19
-32 -42z"/>
<path d="M2220 735 c-6 -8 -9 -23 -5 -34 14 -46 73 -25 61 22 -7 30 -36 36
-56 12z m48 -21 c2 -12 -4 -24 -12 -27 -19 -7 -40 18 -32 39 8 22 40 13 44
-12z"/>
<path d="M2301 718 c-1 -38 10 -48 42 -40 13 3 17 14 16 41 -2 29 -3 31 -6 9
-2 -14 -11 -32 -18 -38 -16 -13 -20 -7 -28 40 -3 18 -5 15 -6 -12z"/>
<path d="M2381 711 c1 -36 1 -36 8 -6 8 40 38 46 44 8 4 -28 4 -28 3 2 -1 26
-5 30 -28 31 -26 1 -28 -2 -27 -35z"/>
<path d="M2556 742 c-3 -5 6 -7 19 -4 15 2 25 0 25 -7 0 -6 -9 -11 -20 -11
-24 0 -39 -29 -20 -40 7 -4 21 -5 32 -2 28 7 21 66 -9 70 -11 2 -24 -1 -27 -6z
m34 -47 c-12 -15 -30 -12 -30 6 0 5 10 9 21 9 18 0 19 -2 9 -15z"/>
<path d="M2683 715 c0 -22 2 -30 4 -17 2 12 2 30 0 40 -3 9 -5 -1 -4 -23z"/>
<path d="M2720 735 c-6 -8 -9 -23 -5 -34 14 -46 73 -25 61 22 -7 30 -36 36
-56 12z m46 -10 c4 -8 0 -22 -7 -31 -11 -13 -14 -13 -27 0 -17 17 -9 46 13 46
9 0 18 -7 21 -15z"/>
<path d="M2803 715 c0 -22 2 -30 4 -17 2 12 2 30 0 40 -3 9 -5 -1 -4 -23z"/>
<path d="M2832 744 c10 -3 19 -19 21 -37 4 -31 5 -31 3 3 -1 27 -5 35 -21 37
-14 1 -15 0 -3 -3z"/>
<path d="M3190 709 c0 -5 5 -7 10 -4 6 3 10 -1 10 -10 0 -10 -5 -13 -12 -9 -7
4 -8 3 -4 -5 10 -16 26 -4 26 20 0 10 -7 19 -15 19 -8 0 -15 -5 -15 -11z"/>
</g>
</svg>
