<?xml version="1.0" encoding="utf-8"?>
<!DOCTYPE svg PUBLIC "-//W3C//DTD SVG 1.0//EN" "http://www.w3.org/TR/2001/REC-SVG-20010904/DTD/svg10.dtd">
<svg version="1.0" xmlns="http://www.w3.org/2000/svg" width="136px" height="136px" viewBox="0 0 136 136" preserveAspectRatio="xMidYMid meet">
 <g fill="#0082ff">
  <path d="M65.50 122.70 c-11.20 -1.60 -18 -4.30 -26.10 -10.30 -6.35 -4.70 -13.20 -13.45 -16.05 -20.55 -3.35 -8.30 -4.65 -19.10 -3.40 -27.35 4.05 -26.05 26.75 -44.70 52.80 -43.30 12.40 0.65 23.20 5.15 31.90 13.30 14.25 13.35 19.60 31.55 14.85 50.65 -3.90 15.65 -16.90 29.65 -32.25 34.80 -7.45 2.50 -16 3.55 -21.75 2.75z m25.65 -33.20 c3.40 -2.35 3.85 -4.05 3.85 -14.80 0 -8.10 -0.10 -9.65 -0.85 -10.70 -1 -1.50 -1.65 -2 -2.55 -2 -0.60 0 -0.65 2.10 -0.55 11.65 0.10 6.35 0 11.90 -0.20 12.25 -0.60 0.95 -5.15 0.80 -5.55 -0.20 -0.15 -0.45 -0.30 -7.50 -0.30 -15.75 l0 -14.95 -1.40 -1.55 -1.40 -1.55 -16.50 -0.10 c-14.90 -0.05 -16.60 0.05 -17.80 0.80 -2.25 1.50 -2.50 3.40 -2.30 18.40 0.15 14.80 0.25 15.30 3 17.85 2.10 1.95 3.95 2.10 22.70 2 l18.05 -0.10 1.80 -1.25z"/>
  <path d="M49.85 83.65 c-0.20 -0.15 -0.35 -3.65 -0.35 -7.70 0 -6.25 0.10 -7.40 0.80 -7.65 0.45 -0.15 3.65 -0.30 7.20 -0.30 5 0 6.60 0.15 7.15 0.75 0.65 0.65 0.80 0.65 1.35 0 0.80 -1 13.95 -1.10 14.90 -0.15 0.80 0.80 0.80 4.50 0 5.30 -0.85 0.85 -13.95 0.85 -14.80 0 -0.45 -0.45 -0.60 0.05 -0.60 2.40 0 1.70 0.20 2.70 0.40 2.30 0.35 -0.45 2.25 -0.60 7.90 -0.50 l7.45 0.15 0 2.75 0 2.75 -7.15 0.15 c-4.35 0.05 -7.50 -0.10 -8.10 -0.40 -0.70 -0.35 -1 -0.35 -1 0 0 0.55 -14.60 0.75 -15.15 0.15z m9.15 -7.40 c0 -1.65 -0.10 -1.75 -1.75 -1.75 -1.60 0 -1.75 0.15 -1.75 1.40 0 0.80 0.15 1.60 0.35 1.75 0.15 0.20 0.95 0.35 1.75 0.35 1.25 0 1.40 -0.15 1.40 -1.75z"/>
  <path d="M50.20 64.35 c-1.05 -0.60 -0.95 -5.15 0.10 -5.55 1 -0.40 29.40 -0.40 30.40 0 0.95 0.35 1.15 4.95 0.25 5.50 -0.80 0.45 -29.85 0.55 -30.75 0.05z"/>
 </g>
 <g fill="#ffffff">
  <path d="M50 91.95 c-2.05 -0.60 -3.75 -2.05 -4.90 -4.20 -0.75 -1.30 -0.85 -3.70 -1 -17.25 -0.10 -14.30 -0.05 -15.90 0.75 -17.50 1.50 -2.90 2.55 -3.05 21.75 -2.90 l17 0.15 1.45 1.65 1.45 1.60 0 14.95 c0 8.25 0.15 15.30 0.30 15.75 0.40 1 2.15 1.05 2.50 0.10 0.15 -0.35 0.30 -5.90 0.35 -12.35 l0.10 -11.70 1.15 -0.15 c1.75 -0.25 3.80 0.75 4.75 2.35 0.75 1.25 0.85 3 0.85 12.30 0 12.35 -0.35 13.85 -3.85 16.25 l-1.80 1.25 -19.55 0.10 c-12.10 0.05 -20.20 -0.10 -21.30 -0.40z m13.70 -10.25 c0.15 -0.45 0.30 -3 0.30 -5.70 0 -6.45 -0.05 -6.50 -6.50 -6.50 -2.70 0 -5.25 0.15 -5.70 0.30 -0.65 0.25 -0.80 1.30 -0.80 6.15 0 3.25 0.15 6.05 0.35 6.20 0.15 0.20 2.95 0.35 6.20 0.35 4.85 0 5.90 -0.15 6.15 -0.80z m16.05 -0.70 l0 -1.25 -6.10 -0.15 c-5.85 -0.10 -6.10 -0.10 -6.40 0.95 -0.55 1.70 0.50 1.95 6.75 1.85 l5.75 -0.15 0 -1.25z m-0.20 -8.80 c0.45 -0.55 0.50 -1 0.10 -1.60 -0.75 -1.25 -11.55 -1.25 -12.30 0 -0.40 0.60 -0.35 1.05 0.10 1.60 0.55 0.65 1.75 0.80 6.05 0.80 4.30 0 5.50 -0.15 6.05 -0.80z m-0.25 -9.40 c0.95 -0.35 0.90 -2.15 -0.10 -2.50 -1 -0.40 -26.40 -0.40 -27.40 0 -1 0.40 -1.05 2 -0.10 2.55 0.80 0.45 26.50 0.35 27.60 -0.05z"/>
  <path d="M54.35 79.15 c-0.20 -0.15 -0.35 -1.65 -0.35 -3.25 l0 -2.90 3.25 0 3.25 0 0 3.25 0 3.25 -2.90 0 c-1.60 0 -3.10 -0.15 -3.25 -0.35z"/>
  <path d="M121.15 72 c0 -1.25 0.10 -1.75 0.20 -1.10 0.10 0.60 0.10 1.60 0 2.25 -0.10 0.60 -0.20 0.10 -0.20 -1.15z"/>
 </g>
</svg>