<?xml version="1.0" encoding="utf-8"?>
<!DOCTYPE svg PUBLIC "-//W3C//DTD SVG 1.0//EN" "http://www.w3.org/TR/2001/REC-SVG-20010904/DTD/svg10.dtd">
<svg version="1.0" xmlns="http://www.w3.org/2000/svg" width="136px" height="136px" viewBox="0 0 136 136" preserveAspectRatio="xMidYMid meet">
 <g fill="#edfaf5">
  <path d="M0 68 l0 -68 68 0 68 0 0 68 0 68 -68 0 -68 0 0 -68z m81.75 44.35 c8.45 -2.40 16.45 -7.05 21.85 -12.80 5.55 -5.85 8.45 -10.70 11.20 -18.80 1.25 -3.65 1.35 -4.65 1.40 -11.75 0 -7.60 0 -7.85 -1.75 -12.75 -2.55 -7.35 -5.85 -12.70 -10.90 -17.80 -9.80 -9.75 -21.20 -14.50 -33.30 -13.80 -11.45 0.65 -21.15 5.10 -29.55 13.60 -6.95 6.95 -10.95 14.75 -12.65 24.45 -2 11.20 2.05 24.95 10.15 34.40 5.65 6.55 10 9.70 18.80 13.55 1.60 0.70 5.85 1.90 9 2.55 2.30 0.45 13.20 -0.15 15.75 -0.85z"/>
  <path d="M46 83.55 c-0.25 -0.55 -0.50 -1.70 -0.50 -2.60 0 -1.40 0.90 -2.55 7.10 -8.80 7.55 -7.60 8.45 -8.15 12.15 -7.45 1.25 0.25 2.75 1.35 5.45 4 l3.70 3.65 6.20 -6.20 6.15 -6.15 -3.35 0 c-4.75 0 -4.90 -0.10 -4.90 -3.50 l0 -2.95 2.30 -0.35 c3.70 -0.55 16.50 0 17.40 0.75 0.70 0.55 0.80 2.10 0.80 9.80 0 10.40 0 10.40 -3.85 10.15 l-2.40 -0.15 -0.15 -4.20 -0.15 -4.20 -7.65 7.55 -7.60 7.60 -2.40 0 c-3.05 0 -3.70 -0.40 -7.75 -4.55 l-3.35 -3.45 -5.95 6 c-5.95 6 -6 6 -8.35 6 -1.85 0 -2.50 -0.20 -2.90 -0.95z"/>
 </g>
 <g fill="#0fba83">
  <path d="M64.50 114.70 c-3.10 -0.65 -7.40 -1.85 -9 -2.55 -6.30 -2.75 -9.70 -4.85 -14.30 -8.75 -5.10 -4.35 -10.85 -13.25 -13.10 -20.40 -3.25 -10.15 -2.80 -21.95 1.20 -31.50 2.65 -6.30 5.10 -9.95 9.90 -14.75 9.15 -9.30 20 -13.80 33.05 -13.80 12.65 0 23.30 4.55 32.80 14 13.45 13.50 16.95 34.35 8.60 52.05 -5.55 11.75 -16.80 20.95 -30.40 24.85 -2.50 0.75 -16.25 1.35 -18.75 0.85z m-8.25 -38.20 c3.55 -3.55 6.70 -6.50 7 -6.50 0.30 0 2.25 1.80 4.35 3.95 3.90 4.05 5.20 5.05 6.70 5.05 0.50 0 5 -4.10 10.05 -9.10 l9.10 -9.10 0.15 5.75 c0.15 5 0.25 5.70 1.05 5.85 2.05 0.40 2.35 -0.60 2.35 -8.65 0 -6.30 -0.15 -7.75 -0.80 -8.25 -0.50 -0.45 -2.80 -0.70 -7.60 -0.75 -8.80 -0.05 -9.10 0 -9.10 1.75 0 1.80 0.60 2 6.40 2 l4.85 0 -8.25 8.25 c-4.55 4.55 -8.45 8.25 -8.65 8.25 -0.25 0 -2.20 -1.80 -4.35 -4 -4.20 -4.30 -5.80 -5.25 -7.60 -4.55 -0.65 0.25 -4.25 3.60 -8.05 7.45 -6.25 6.35 -6.90 7.10 -6.35 8.05 0.30 0.60 0.90 1.05 1.40 1.05 0.50 0 3.80 -2.90 7.35 -6.50z"/>
 </g>
</svg>